<svg width="14" height="15" viewBox="0 0 14 15" fill="none" xmlns="http://www.w3.org/2000/svg">
<path fill-rule="evenodd" clip-rule="evenodd" d="M6.99908 0C3.13353 0 -0.000915527 3.13503 -0.000915527 7.00175C-0.000915527 10.8685 3.13353 14.0035 6.99908 14.0035C10.8652 14.0035 13.9991 10.8685 13.9991 7.00175C13.9991 3.13503 10.8652 0 6.99908 0ZM9.5734 9.74935L9.36918 9.95357C9.19938 10.1234 8.9129 10.1315 8.73435 9.97049L6.09703 7.66283C5.91731 7.50238 5.78136 7.17388 5.79303 6.93348L6.03751 2.77094C6.05035 2.52997 6.25748 2.33392 6.49846 2.33392H6.78611C7.02709 2.33392 7.23364 2.52997 7.24531 2.77036L7.44545 6.23273C7.4577 6.4737 7.59832 6.8162 7.75761 6.9965L9.59207 9.11336C9.75136 9.29366 9.74377 9.57956 9.5734 9.74935Z" fill="#37BBEB"/>
</svg>
