<svg width="169" height="225" viewBox="0 0 169 225" fill="none" xmlns="http://www.w3.org/2000/svg">
<g clip-path="url(#clip0_1:1255)">
<path d="M84.5002 225C131.168 225 169 186.944 169 140C169 93.0558 131.168 55 84.5002 55C37.832 55 0 93.0558 0 140C0 186.944 37.832 225 84.5002 225Z" fill="#C3EBF9"/>
<path d="M168.875 144.491L126.543 173.376L146.043 198.194C145.463 198.817 144.873 199.431 144.272 200.034L124.485 174.85L90.1023 200.68L105.33 222.393C104.454 222.619 103.572 222.828 102.684 223.022L87.3351 201.135L65.7994 170.87L28.0973 178.525L31.1138 205.852C30.1616 205.07 29.2279 204.267 28.313 203.444L25.5094 178.042L0.469876 148.85C0.318631 147.433 0.20473 146.005 0.128174 144.568L27.1899 176.12L64.1861 168.606L12.2606 95.6359C12.7311 94.854 13.2147 94.0806 13.7114 93.3157L66.8965 168.056L67.1878 167.996L105.985 140.483L78.5032 104.527L82.472 54.7066C83.147 54.6896 83.8229 54.6812 84.4998 54.6812C84.6678 54.6812 84.8359 54.6812 85.0039 54.684L81.0939 103.754L108.049 139.018L160.226 102.018C160.607 102.786 160.975 103.561 161.33 104.344L68.4342 170.218L88.6394 198.611L124.941 171.339L124.975 171.381L168.984 141.35C168.967 142.403 168.931 143.447 168.875 144.491Z" fill="white"/>
<path d="M84.4973 3.61963C57.9 3.61963 36.4243 25.2857 36.4243 52.0089C36.4243 60.4118 39.5893 69.8766 42.2895 75.2062C51.1536 92.7118 83.9632 141.66 83.9632 141.66C84.0187 141.754 84.0972 141.831 84.1912 141.885C84.2853 141.939 84.3915 141.967 84.4996 141.967C84.6077 141.967 84.7139 141.939 84.8079 141.885C84.9019 141.831 84.9805 141.754 85.0359 141.66C85.0359 141.66 117.845 92.7118 126.709 75.2062C129.408 69.8755 132.575 60.4118 132.575 52.0089C132.575 25.2845 111.099 3.61963 84.5015 3.61963H84.4973Z" fill="#4BC2ED"/>
<path d="M83.4635 11.2082C83.8086 11.1995 84.1503 11.2082 84.4973 11.2082C89.8275 11.2083 95.1045 12.276 100.022 14.3494C104.939 16.4228 109.398 19.4605 113.14 23.2859C116.882 27.1113 119.832 31.6481 121.819 36.6327C123.806 41.6172 124.79 46.9501 124.715 52.3214C124.412 74.1528 106.732 91.972 85.069 92.2746C74.458 92.3997 64.2278 88.2944 56.6065 80.8528C48.9851 73.4112 44.5899 63.2362 44.3781 52.5438C44.1664 41.8513 48.1552 31.5077 55.4759 23.7655C62.7966 16.0234 72.8561 11.51 83.4635 11.2082V11.2082Z" fill="white"/>
<rect width="16.847" height="13.7882" transform="matrix(0.592246 -0.805753 0.801931 0.59741 56.8152 42.1934)" fill="#C3EBF9"/>
<rect width="2.6239" height="5.90621" rx="1.31195" transform="matrix(0.592089 -0.80587 0.801815 0.597569 62.8328 41.7656)" fill="#4BC2ED"/>
<rect width="2.6239" height="5.90623" rx="1.31195" transform="matrix(0.59226 -0.805742 0.801942 0.597396 66.7246 36.4744)" fill="#4BC2ED"/>
<path d="M65.3047 53.1438L79.8118 33.4072L103.5 51.0534C108.924 55.0943 110.074 62.7882 106.068 68.2383V68.2383C102.062 73.6884 94.4168 74.8308 88.9925 70.79L65.3047 53.1438Z" fill="#4BC2ED"/>
</g>
<defs>
<clipPath id="clip0_1:1255">
<rect width="169" height="225" fill="white"/>
</clipPath>
</defs>
</svg>
