<svg width="109" height="109" viewBox="0 0 109 109" fill="none" xmlns="http://www.w3.org/2000/svg">
<rect width="109" height="109" fill="white"/>
<g clip-path="url(#clip0_12:4061)">
<path d="M43.3848 35.5174C42.7217 34.8558 42.3901 33.9844 42.3901 33.1136C42.3901 32.2429 42.7217 31.3715 43.3848 30.7098L51.119 22.9925C51.7821 22.3309 52.6554 22 53.5281 22C54.4007 22 55.274 22.3309 55.9371 22.9926C56.6003 23.6543 56.9319 24.5257 56.9319 25.3964C56.9319 25.7943 56.8627 26.1924 56.7242 26.5705L65.479 35.3123C65.8583 35.1738 66.2577 35.1046 66.657 35.1046C67.5221 35.1046 68.3879 35.4299 69.0489 36.0802C69.0607 36.0913 69.0722 36.1028 69.0834 36.1147C69.735 36.7742 70.0609 37.6378 70.0609 38.501C70.0609 39.3717 69.7293 40.243 69.0662 40.9047L61.332 48.622C60.6689 49.2836 59.7956 49.6146 58.9229 49.6145C58.0537 49.6145 57.1839 49.2862 56.5217 48.6298L56.5137 48.622C55.8506 47.9603 55.519 47.0889 55.519 46.2181C55.519 45.8154 55.59 45.4125 55.7319 45.0303L46.9857 36.2972C46.6023 36.4391 46.198 36.51 45.794 36.51C44.9213 36.51 44.0479 36.1791 43.3848 35.5174Z" fill="#93DAF4"/>
<path d="M47.527 48.1822L52.6791 43.0413L48.9188 39.2893L43.7672 44.4296C43.3597 44.1504 42.8837 44.0109 42.4081 44.0109C41.7933 44.0109 41.1779 44.2441 40.7104 44.7106L31.6996 53.7017C31.2321 54.1682 30.9983 54.7823 30.9983 55.3958H31.0012C31.0012 56.011 31.234 56.6252 31.6996 57.0898L34.837 60.2203C35.3044 60.6868 35.9199 60.9201 36.5347 60.9201C37.1495 60.9201 37.7649 60.6868 38.2325 60.2203L47.2432 51.2292C47.7107 50.7627 47.9445 50.1486 47.9445 49.5352C47.9445 49.0618 47.8054 48.5882 47.527 48.1822Z" fill="#5DC9EF"/>
<path d="M56.0147 57.1658H78.2504C78.6646 57.1658 79.0005 57.5009 79.0005 57.9142V62.2515C79.0005 62.6648 78.6646 62.9999 78.2504 62.9999H56.0147C55.6005 62.9999 55.2646 62.6648 55.2646 62.2515V57.9142C55.2646 57.5009 55.6005 57.1658 56.0147 57.1658V57.1658Z" fill="#93DAF4"/>
<path d="M59.1084 56.4173V53.5768C59.1084 53.1635 59.4442 52.8284 59.8585 52.8284H74.4036C74.8178 52.8284 75.1536 53.1635 75.1536 53.5768V56.4173H59.1084Z" fill="#5DC9EF"/>
</g>
<path d="M21.0703 90.7988H21.7324C22.2988 89.7637 22.7734 88.6016 23.1562 87.3125C23.5391 86.0234 23.7852 84.7305 23.8945 83.4336H28.3184V90.7988H29.4258V94.3613H28.0781V92H22.418V94.3613H21.0703V90.7988ZM25.0664 84.6465C24.9805 85.5332 24.7617 86.5625 24.4102 87.7344C24.0586 88.9023 23.6582 89.9238 23.209 90.7988H26.918V84.6465H25.0664ZM35.9941 92H34.6055V86.5977H32.8184C32.709 87.9883 32.5605 89.0742 32.373 89.8555C32.1895 90.6367 31.9473 91.207 31.6465 91.5664C31.3496 91.9258 30.9629 92.1055 30.4863 92.1055C30.1855 92.1055 29.9336 92.0625 29.7305 91.9766V90.8984C29.875 90.9531 30.0195 90.9805 30.1641 90.9805C30.5625 90.9805 30.875 90.5332 31.1016 89.6387C31.332 88.7402 31.5117 87.3672 31.6406 85.5195H35.9941V92ZM38.6309 92H37.0898L38.8945 89.3457C38.457 89.2207 38.1133 88.998 37.8633 88.6777C37.6133 88.3535 37.4883 87.9531 37.4883 87.4766C37.4883 86.8633 37.707 86.3848 38.1445 86.041C38.582 85.6934 39.1797 85.5195 39.9375 85.5195H42.8906V92H41.5078V89.5039H40.2012L38.6309 92ZM38.8301 87.4883C38.8301 87.8203 38.9551 88.0703 39.2051 88.2383C39.459 88.4023 39.7988 88.4844 40.2246 88.4844H41.5078V86.5625H40.0078C39.6328 86.5625 39.3418 86.6426 39.1348 86.8027C38.9316 86.9629 38.8301 87.1914 38.8301 87.4883ZM52.8457 85.5195V86.5977H50.7363V92H49.3535V86.5977H47.2441V85.5195H52.8457ZM59.8418 88.748C59.8418 89.8066 59.5703 90.6328 59.0273 91.2266C58.4844 91.8203 57.7285 92.1172 56.7598 92.1172C56.1543 92.1172 55.6191 91.9805 55.1543 91.707C54.6895 91.4336 54.332 91.041 54.082 90.5293C53.832 90.0176 53.707 89.4238 53.707 88.748C53.707 87.6973 53.9766 86.877 54.5156 86.2871C55.0547 85.6973 55.8145 85.4023 56.7949 85.4023C57.7324 85.4023 58.4746 85.7051 59.0215 86.3105C59.5684 86.9121 59.8418 87.7246 59.8418 88.748ZM55.125 88.748C55.125 90.2441 55.6777 90.9922 56.7832 90.9922C57.877 90.9922 58.4238 90.2441 58.4238 88.748C58.4238 87.2676 57.873 86.5273 56.7715 86.5273C56.1934 86.5273 55.7734 86.7188 55.5117 87.1016C55.2539 87.4844 55.125 88.0332 55.125 88.748ZM64.7168 92.1172C63.8965 92.1172 63.2598 91.8223 62.8066 91.2324H62.7246C62.7793 91.7793 62.8066 92.1113 62.8066 92.2285V94.8828H61.4297V85.5195H62.543C62.5742 85.6406 62.6387 85.9297 62.7363 86.3867H62.8066C63.2363 85.7305 63.8809 85.4023 64.7402 85.4023C65.5488 85.4023 66.1777 85.6953 66.627 86.2812C67.0801 86.8672 67.3066 87.6895 67.3066 88.748C67.3066 89.8066 67.0762 90.6328 66.6152 91.2266C66.1582 91.8203 65.5254 92.1172 64.7168 92.1172ZM64.3828 86.5273C63.8359 86.5273 63.4355 86.6875 63.1816 87.0078C62.9316 87.3281 62.8066 87.8398 62.8066 88.543V88.748C62.8066 89.5371 62.9316 90.1094 63.1816 90.4648C63.4316 90.8164 63.8398 90.9922 64.4062 90.9922C64.8828 90.9922 65.25 90.7969 65.5078 90.4062C65.7656 90.0156 65.8945 89.459 65.8945 88.7363C65.8945 88.0098 65.7656 87.4609 65.5078 87.0898C65.2539 86.7148 64.8789 86.5273 64.3828 86.5273ZM73.0957 85.5195V86.5977H70.2832V92H68.9062V85.5195H73.0957ZM80.0918 88.748C80.0918 89.8066 79.8203 90.6328 79.2773 91.2266C78.7344 91.8203 77.9785 92.1172 77.0098 92.1172C76.4043 92.1172 75.8691 91.9805 75.4043 91.707C74.9395 91.4336 74.582 91.041 74.332 90.5293C74.082 90.0176 73.957 89.4238 73.957 88.748C73.957 87.6973 74.2266 86.877 74.7656 86.2871C75.3047 85.6973 76.0645 85.4023 77.0449 85.4023C77.9824 85.4023 78.7246 85.7051 79.2715 86.3105C79.8184 86.9121 80.0918 87.7246 80.0918 88.748ZM75.375 88.748C75.375 90.2441 75.9277 90.9922 77.0332 90.9922C78.127 90.9922 78.6738 90.2441 78.6738 88.748C78.6738 87.2676 78.123 86.5273 77.0215 86.5273C76.4434 86.5273 76.0234 86.7188 75.7617 87.1016C75.5039 87.4844 75.375 88.0332 75.375 88.748ZM87.3047 87.1777C87.3047 87.9434 86.8574 88.4062 85.9629 88.5664V88.6133C86.4629 88.6719 86.8457 88.8301 87.1113 89.0879C87.377 89.3457 87.5098 89.6797 87.5098 90.0898C87.5098 90.7031 87.2754 91.1758 86.8066 91.5078C86.3418 91.8359 85.6641 92 84.7734 92H81.6797V85.5195H84.7617C86.457 85.5195 87.3047 86.0723 87.3047 87.1777ZM86.0977 90.0078C86.0977 89.6953 85.9766 89.4746 85.7344 89.3457C85.4922 89.2129 85.1289 89.1465 84.6445 89.1465H83.0566V90.9805H84.6797C85.625 90.9805 86.0977 90.6562 86.0977 90.0078ZM85.9277 87.2949C85.9277 87.0371 85.8262 86.8516 85.623 86.7383C85.4238 86.6211 85.125 86.5625 84.7266 86.5625H83.0566V88.1211H84.5215C84.9824 88.1211 85.332 88.0625 85.5703 87.9453C85.8086 87.8242 85.9277 87.6074 85.9277 87.2949Z" fill="#212529"/>
<defs>
<clipPath id="clip0_12:4061">
<rect width="48" height="48" fill="white" transform="translate(31 19)"/>
</clipPath>
</defs>
</svg>
