<svg width="16" height="16" viewBox="0 0 16 16" fill="none" xmlns="http://www.w3.org/2000/svg">
<path d="M8 0.75C4.02826 0.75 0.75 4.02826 0.75 8C0.75 9.51304 1.1913 10.9 2.01087 12.0978L1.1913 14.5565C1.12826 14.6826 1.1913 14.8087 1.25435 14.8717C1.38043 14.9348 1.50652 14.9978 1.63261 14.9348L4.15435 14.1152C5.28913 14.8717 6.67609 15.25 8 15.25C11.9717 15.25 15.25 11.9717 15.25 8C15.25 4.02826 11.9717 0.75 8 0.75ZM12.35 10.963C12.1609 11.5304 11.4043 12.0348 10.7739 12.1609C10.6478 12.1609 10.5217 12.2239 10.3326 12.2239C9.82826 12.2239 9.19783 12.0348 8.18913 11.6565C6.92826 11.1522 5.66739 10.0174 4.6587 8.56739L4.59565 8.50435C4.21739 8 3.65 7.11739 3.65 6.17174C3.65 5.1 4.21739 4.53261 4.40652 4.28043C4.6587 4.02826 4.97391 3.90217 5.35217 3.90217C5.41522 3.90217 5.47826 3.90217 5.5413 3.90217H5.60435C5.91957 3.90217 6.1087 4.02826 6.29783 4.40652L6.42391 4.6587C6.61304 5.1 6.86522 5.79348 6.92826 5.91957C7.05435 6.17174 7.05435 6.36087 6.92826 6.55C6.86522 6.67609 6.80217 6.80217 6.67609 6.92826C6.61304 6.9913 6.55 7.05435 6.55 7.11739C6.48696 7.18044 6.42391 7.24348 6.36087 7.30652C6.36087 7.36957 6.36087 7.36957 6.36087 7.36957C6.55 7.68478 6.92826 8.25217 7.43261 8.69348C8.12609 9.32391 8.63043 9.51304 8.88261 9.63913H8.94565C9.0087 9.63913 9.07174 9.70217 9.07174 9.63913C9.19783 9.51304 9.32391 9.26087 9.51304 9.07174L9.57609 9.0087C9.76522 8.75652 10.0174 8.69348 10.1435 8.69348C10.2065 8.69348 10.3326 8.69348 10.3957 8.75652C10.4587 8.75652 10.5848 8.81957 11.7826 9.45L11.9087 9.51304C12.0978 9.57609 12.2239 9.63913 12.287 9.82826C12.5391 9.95435 12.4761 10.5217 12.35 10.963Z" fill="#37BBEB"/>
</svg>
