<svg width="109" height="109" viewBox="0 0 109 109" fill="none" xmlns="http://www.w3.org/2000/svg">
<rect width="109" height="109" fill="white"/>
<path d="M16.0703 86.7988H16.7324C17.2988 85.7637 17.7734 84.6016 18.1562 83.3125C18.5391 82.0234 18.7852 80.7305 18.8945 79.4336H23.3184V86.7988H24.4258V90.3613H23.0781V88H17.418V90.3613H16.0703V86.7988ZM20.0664 80.6465C19.9805 81.5332 19.7617 82.5625 19.4102 83.7344C19.0586 84.9023 18.6582 85.9238 18.209 86.7988H21.918V80.6465H20.0664ZM30.9941 88H29.6055V82.5977H27.8184C27.709 83.9883 27.5605 85.0742 27.373 85.8555C27.1895 86.6367 26.9473 87.207 26.6465 87.5664C26.3496 87.9258 25.9629 88.1055 25.4863 88.1055C25.1855 88.1055 24.9336 88.0625 24.7305 87.9766V86.8984C24.875 86.9531 25.0195 86.9805 25.1641 86.9805C25.5625 86.9805 25.875 86.5332 26.1016 85.6387C26.332 84.7402 26.5117 83.3672 26.6406 81.5195H30.9941V88ZM33.6309 88H32.0898L33.8945 85.3457C33.457 85.2207 33.1133 84.998 32.8633 84.6777C32.6133 84.3535 32.4883 83.9531 32.4883 83.4766C32.4883 82.8633 32.707 82.3848 33.1445 82.041C33.582 81.6934 34.1797 81.5195 34.9375 81.5195H37.8906V88H36.5078V85.5039H35.2012L33.6309 88ZM33.8301 83.4883C33.8301 83.8203 33.9551 84.0703 34.2051 84.2383C34.459 84.4023 34.7988 84.4844 35.2246 84.4844H36.5078V82.5625H35.0078C34.6328 82.5625 34.3418 82.6426 34.1348 82.8027C33.9316 82.9629 33.8301 83.1914 33.8301 83.4883ZM47.166 81.5195V82.5977H44.3535V88H42.9766V81.5195H47.166ZM54.1621 84.748C54.1621 85.8066 53.8906 86.6328 53.3477 87.2266C52.8047 87.8203 52.0488 88.1172 51.0801 88.1172C50.4746 88.1172 49.9395 87.9805 49.4746 87.707C49.0098 87.4336 48.6523 87.041 48.4023 86.5293C48.1523 86.0176 48.0273 85.4238 48.0273 84.748C48.0273 83.6973 48.2969 82.877 48.8359 82.2871C49.375 81.6973 50.1348 81.4023 51.1152 81.4023C52.0527 81.4023 52.7949 81.7051 53.3418 82.3105C53.8887 82.9121 54.1621 83.7246 54.1621 84.748ZM49.4453 84.748C49.4453 86.2441 49.998 86.9922 51.1035 86.9922C52.1973 86.9922 52.7441 86.2441 52.7441 84.748C52.7441 83.2676 52.1934 82.5273 51.0918 82.5273C50.5137 82.5273 50.0938 82.7188 49.832 83.1016C49.5742 83.4844 49.4453 84.0332 49.4453 84.748ZM58.3633 88.1172C57.3828 88.1172 56.6367 87.832 56.125 87.2617C55.6172 86.6875 55.3633 85.8652 55.3633 84.7949C55.3633 83.7051 55.6289 82.8672 56.1602 82.2812C56.6953 81.6953 57.4668 81.4023 58.4746 81.4023C59.1582 81.4023 59.7734 81.5293 60.3203 81.7832L59.9043 82.8906C59.3223 82.6641 58.8418 82.5508 58.4629 82.5508C57.3418 82.5508 56.7812 83.2949 56.7812 84.7832C56.7812 85.5098 56.9199 86.0566 57.1973 86.4238C57.4785 86.7871 57.8887 86.9688 58.4277 86.9688C59.041 86.9688 59.6211 86.8164 60.168 86.5117V87.7129C59.9219 87.8574 59.6582 87.9609 59.377 88.0234C59.0996 88.0859 58.7617 88.1172 58.3633 88.1172ZM60.707 81.5195H62.207L63.5254 85.1934C63.7246 85.7168 63.8574 86.209 63.9238 86.6699H63.9707C64.0059 86.4551 64.0703 86.1953 64.1641 85.8906C64.2578 85.582 64.7539 84.125 65.6523 81.5195H67.1406L64.3691 88.8613C63.8652 90.209 63.0254 90.8828 61.8496 90.8828C61.5449 90.8828 61.248 90.8496 60.959 90.7832V89.6934C61.166 89.7402 61.4023 89.7637 61.668 89.7637C62.332 89.7637 62.7988 89.3789 63.0684 88.6094L63.3086 88L60.707 81.5195ZM70.7383 88.1172C69.7578 88.1172 69.0117 87.832 68.5 87.2617C67.9922 86.6875 67.7383 85.8652 67.7383 84.7949C67.7383 83.7051 68.0039 82.8672 68.5352 82.2812C69.0703 81.6953 69.8418 81.4023 70.8496 81.4023C71.5332 81.4023 72.1484 81.5293 72.6953 81.7832L72.2793 82.8906C71.6973 82.6641 71.2168 82.5508 70.8379 82.5508C69.7168 82.5508 69.1562 83.2949 69.1562 84.7832C69.1562 85.5098 69.2949 86.0566 69.5723 86.4238C69.8535 86.7871 70.2637 86.9688 70.8027 86.9688C71.416 86.9688 71.9961 86.8164 72.543 86.5117V87.7129C72.2969 87.8574 72.0332 87.9609 71.752 88.0234C71.4746 88.0859 71.1367 88.1172 70.7383 88.1172ZM79.3926 88H78.0039V82.5977H76.2168C76.1074 83.9883 75.959 85.0742 75.7715 85.8555C75.5879 86.6367 75.3457 87.207 75.0449 87.5664C74.748 87.9258 74.3613 88.1055 73.8848 88.1055C73.584 88.1055 73.332 88.0625 73.1289 87.9766V86.8984C73.2734 86.9531 73.418 86.9805 73.5625 86.9805C73.9609 86.9805 74.2734 86.5332 74.5 85.6387C74.7305 84.7402 74.9102 83.3672 75.0391 81.5195H79.3926V88ZM80.3828 81.5195H81.8828L83.2012 85.1934C83.4004 85.7168 83.5332 86.209 83.5996 86.6699H83.6465C83.6816 86.4551 83.7461 86.1953 83.8398 85.8906C83.9336 85.582 84.4297 84.125 85.3281 81.5195H86.8164L84.0449 88.8613C83.541 90.209 82.7012 90.8828 81.5254 90.8828C81.2207 90.8828 80.9238 90.8496 80.6348 90.7832V89.6934C80.8418 89.7402 81.0781 89.7637 81.3438 89.7637C82.0078 89.7637 82.4746 89.3789 82.7441 88.6094L82.9844 88L80.3828 81.5195ZM91.9902 81.5195V82.5977H89.1777V88H87.8008V81.5195H91.9902Z" fill="#212529"/>
<path d="M40.6882 58.6693C41.1632 58.6693 41.5492 58.2894 41.5492 57.8205V43.1862C41.5492 42.7196 41.1632 42.3376 40.6882 42.3376H37.4036C36.9256 42.3376 36.5427 42.7196 36.5427 43.1862V57.8205C36.5427 58.2894 36.9255 58.6693 37.4036 58.6693H40.6882Z" fill="#5DC9EF"/>
<path d="M75.6218 60.094H34.3752C33.9059 60.094 33.5173 60.4743 33.5173 60.9441V63.1497C33.5173 63.6211 33.9059 64.0001 34.3752 64.0001H75.6217C76.0967 64.0001 76.4774 63.6212 76.4774 63.1497V60.9441C76.4775 60.4742 76.0968 60.094 75.6218 60.094Z" fill="#93DAF4"/>
<path d="M51.3287 58.6693C51.7989 58.6693 52.1843 58.2894 52.1843 57.8205V43.1862C52.1843 42.7196 51.7989 42.3376 51.3287 42.3376H48.0359C47.5661 42.3376 47.1833 42.7196 47.1833 43.1862V57.8205C47.1833 58.2894 47.5661 58.6693 48.0359 58.6693H51.3287Z" fill="#5DC9EF"/>
<path d="M72.5969 58.6693C73.0671 58.6693 73.4548 58.2894 73.4548 57.8205V43.1862C73.4548 42.7196 73.0669 42.3376 72.5969 42.3376H69.3035C68.8317 42.3376 68.449 42.7196 68.449 43.1862V57.8205C68.449 58.2894 68.8318 58.6693 69.3035 58.6693H72.5969Z" fill="#5DC9EF"/>
<path d="M75.8813 37.5538L58.2998 23.1163C56.4827 21.6279 53.5149 21.6279 51.6977 23.1163L34.1199 37.5538C32.3002 39.0492 32.7463 40.2652 35.1045 40.2652H74.898C77.2539 40.2652 77.6976 39.0492 75.8813 37.5538ZM54.9989 36.7527C53.1552 36.7527 51.6609 35.2668 51.6609 33.4384C51.6609 31.6096 53.1552 30.1291 54.9989 30.1291C56.8472 30.1291 58.3372 31.6096 58.3372 33.4384C58.3372 35.2668 56.8472 36.7527 54.9989 36.7527Z" fill="#93DAF4"/>
<path d="M61.9605 58.6693C62.4356 58.6693 62.8184 58.2894 62.8184 57.8205V43.1862C62.8184 42.7196 62.4356 42.3376 61.9605 42.3376H58.6731C58.1971 42.3376 57.8142 42.7196 57.8142 43.1862V57.8205C57.8142 58.2894 58.1971 58.6693 58.6731 58.6693H61.9605Z" fill="#5DC9EF"/>
</svg>
