<svg width="200" height="69" viewBox="0 0 200 69" fill="none" xmlns="http://www.w3.org/2000/svg">
<path d="M28.5127 3.40652H20.8408V15.7794H11.2509V3.40652H3V0.0353007H28.5127V3.40652ZM78 15.7441H73.7841H67.0169L63.1809 11.914L59.2907 15.7971H52.5235H51.6731H43.5127L42.4089 13.5025H34.3028L33.199 15.7971H25.0386L34.2485 0.0529514H42.4994L50.5151 13.8732L51.0036 13.4496L57.4813 7.80146L48.7057 0.0529514H58.8203L63.1448 4.02428L67.5054 0H77.62L68.6635 7.7485L75.2316 13.3966L78 15.7441ZM40.8347 10.1843L38.392 5.0833L35.9493 10.1843H40.8347Z" fill="black"/>
<path fill-rule="evenodd" clip-rule="evenodd" d="M3 31.9999V17.7561H78V31.9999H3ZM19.0133 23.4395H25.69H25.7081V22.7865H25.6538V22.557C25.6538 21.0567 22.8673 19.8035 16.2992 19.8035H16.2449C9.67672 19.8035 6.79976 21.0214 6.79976 22.557V22.7865V26.7401V26.7931C6.79976 28.7523 9.76719 29.8819 16.2449 29.8819C22.7587 29.8819 25.6357 28.7523 25.6357 26.7931V26.7401V26.0871H18.9771V26.7931C18.9771 27.2696 18.7419 27.6756 18.3076 27.8698C17.8191 28.0992 17.1134 28.3287 16.1001 28.3287C15.0869 28.3287 14.4174 28.0992 13.9831 27.8698C13.6031 27.6933 13.3679 27.2696 13.3679 26.846V22.6452C13.3679 22.1687 13.6574 21.7627 14.0374 21.5686C14.5621 21.3391 15.2859 21.1979 16.1906 21.1979C17.0953 21.1979 17.8191 21.2862 18.3438 21.5686C18.778 21.798 19.0133 22.1863 19.0133 22.6452V23.4395ZM46.1182 26.7578V22.7865H46.1363V22.557C46.1363 21.0567 43.3498 19.8035 36.7817 19.8035H36.7274C30.1592 19.8035 27.2823 21.0214 27.2823 22.557V22.7865V26.7578V26.8107C27.2823 28.7699 30.2497 29.8995 36.7274 29.8995C43.2413 29.8995 46.1182 28.7699 46.1182 26.8107V26.7578ZM67.8854 22.4687V29.4759H74.0917V20.2272H64.7008L60.9192 26.0165L57.1375 20.2272H47.7467V29.4759H54.0253V22.4687L58.4403 29.4759H63.4704L67.8854 22.4687ZM36.6212 21.2512C37.5259 21.2512 38.2497 21.3395 38.7744 21.6219C39.1544 21.816 39.4439 22.2396 39.4077 22.6809V26.8464C39.4077 27.3229 39.1725 27.7289 38.7382 27.9231C38.2497 28.1525 37.544 28.382 36.5307 28.382C35.5175 28.382 34.848 28.1525 34.4137 27.9231C34.0338 27.7465 33.7985 27.3229 33.7985 26.8993V22.6985C33.7985 22.222 34.088 21.816 34.468 21.6219C34.9927 21.3924 35.7165 21.2512 36.6212 21.2512Z" fill="#005EB2"/>
<path d="M93.908 13.14C92.9093 13.14 92.0087 12.9253 91.206 12.496C90.4033 12.0573 89.7733 11.4553 89.316 10.69C88.8587 9.91533 88.63 9.052 88.63 8.1C88.63 7.148 88.8587 6.28933 89.316 5.524C89.7733 4.74933 90.4033 4.14733 91.206 3.718C92.0087 3.27933 92.9093 3.06 93.908 3.06C94.9067 3.06 95.8073 3.27933 96.61 3.718C97.4127 4.14733 98.0427 4.74467 98.5 5.51C98.9573 6.27533 99.186 7.13867 99.186 8.1C99.186 9.06133 98.9573 9.92467 98.5 10.69C98.0427 11.4553 97.4127 12.0573 96.61 12.496C95.8073 12.9253 94.9067 13.14 93.908 13.14ZM93.908 11.544C94.5613 11.544 95.1493 11.3993 95.672 11.11C96.1947 10.8113 96.6053 10.4007 96.904 9.878C97.2027 9.346 97.352 8.75333 97.352 8.1C97.352 7.44667 97.2027 6.85867 96.904 6.336C96.6053 5.804 96.1947 5.39333 95.672 5.104C95.1493 4.80533 94.5613 4.656 93.908 4.656C93.2547 4.656 92.6667 4.80533 92.144 5.104C91.6213 5.39333 91.2107 5.804 90.912 6.336C90.6133 6.85867 90.464 7.44667 90.464 8.1C90.464 8.75333 90.6133 9.346 90.912 9.878C91.2107 10.4007 91.6213 10.8113 92.144 11.11C92.6667 11.3993 93.2547 11.544 93.908 11.544ZM111.086 9.248C111.086 10.4053 110.699 11.3153 109.924 11.978C109.159 12.6407 108.062 13.0187 106.634 13.112V15.716H104.982V13.126C103.554 13.0327 102.458 12.6547 101.692 11.992C100.927 11.3293 100.544 10.4147 100.544 9.248C100.544 8.09067 100.927 7.19 101.692 6.546C102.458 5.89267 103.554 5.51933 104.982 5.426V2.612H106.634V5.426C108.062 5.51933 109.159 5.89267 109.924 6.546C110.699 7.19933 111.086 8.1 111.086 9.248ZM102.266 9.248C102.266 9.96667 102.486 10.5267 102.924 10.928C103.372 11.3293 104.058 11.572 104.982 11.656V6.91C104.058 6.98467 103.372 7.218 102.924 7.61C102.486 8.002 102.266 8.548 102.266 9.248ZM106.634 11.656C108.464 11.488 109.378 10.6853 109.378 9.248C109.378 8.53867 109.15 7.99267 108.692 7.61C108.244 7.218 107.558 6.98467 106.634 6.91V11.656ZM112.982 5.524H114.732V10.452L118.862 5.524H120.458V13H118.708V8.072L114.592 13H112.982V5.524ZM131.216 11.516V14.722H129.578V13H123.012V5.524H124.762V11.516H128.332V5.524H130.082V11.516H131.216ZM132.974 5.524H134.724V10.452L138.854 5.524H140.45V13H138.7V8.072L134.584 13H132.974V5.524ZM145.79 5.44C146.891 5.44 147.731 5.706 148.31 6.238C148.898 6.76067 149.192 7.554 149.192 8.618V13H147.54V12.09C147.325 12.4167 147.017 12.6687 146.616 12.846C146.224 13.014 145.748 13.098 145.188 13.098C144.628 13.098 144.138 13.0047 143.718 12.818C143.298 12.622 142.971 12.356 142.738 12.02C142.514 11.6747 142.402 11.2873 142.402 10.858C142.402 10.186 142.649 9.64933 143.144 9.248C143.648 8.83733 144.437 8.632 145.51 8.632H147.442V8.52C147.442 7.99733 147.283 7.596 146.966 7.316C146.658 7.036 146.196 6.896 145.58 6.896C145.16 6.896 144.745 6.96133 144.334 7.092C143.933 7.22267 143.592 7.40467 143.312 7.638L142.626 6.364C143.018 6.06533 143.489 5.83667 144.04 5.678C144.591 5.51933 145.174 5.44 145.79 5.44ZM145.552 11.824C145.991 11.824 146.378 11.726 146.714 11.53C147.059 11.3247 147.302 11.0353 147.442 10.662V9.794H145.636C144.628 9.794 144.124 10.1253 144.124 10.788C144.124 11.1053 144.25 11.3573 144.502 11.544C144.754 11.7307 145.104 11.824 145.552 11.824ZM158.334 5.524V13H156.584V7.008H153.784L153.714 8.492C153.667 9.48133 153.574 10.312 153.434 10.984C153.303 11.6467 153.074 12.174 152.748 12.566C152.43 12.9487 151.992 13.14 151.432 13.14C151.17 13.14 150.848 13.0887 150.466 12.986L150.55 11.516C150.68 11.544 150.792 11.558 150.886 11.558C151.24 11.558 151.506 11.418 151.684 11.138C151.861 10.8487 151.973 10.508 152.02 10.116C152.076 9.71467 152.122 9.14533 152.16 8.408L152.286 5.524H158.334ZM164.642 7.988C165.594 7.988 166.322 8.20267 166.826 8.632C167.34 9.06133 167.596 9.668 167.596 10.452C167.596 11.2733 167.316 11.908 166.756 12.356C166.196 12.804 165.408 13.0233 164.39 13.014L160.89 13V5.524H162.64V7.974L164.642 7.988ZM164.236 11.726C164.75 11.7353 165.142 11.628 165.412 11.404C165.683 11.18 165.818 10.8533 165.818 10.424C165.818 10.004 165.688 9.696 165.426 9.5C165.165 9.304 164.768 9.20133 164.236 9.192L162.64 9.178V11.712L164.236 11.726ZM169.335 5.524H171.085V8.562H174.851V5.524H176.601V13H174.851V10.046H171.085V13H169.335V5.524ZM182.786 7.988C183.738 7.988 184.466 8.20267 184.97 8.632C185.474 9.06133 185.726 9.668 185.726 10.452C185.726 11.2733 185.446 11.908 184.886 12.356C184.335 12.804 183.551 13.0233 182.534 13.014L179.146 13V5.524H180.896V7.974L182.786 7.988ZM186.692 5.524H188.442V13H186.692V5.524ZM182.38 11.726C182.893 11.7353 183.285 11.628 183.556 11.404C183.827 11.18 183.962 10.8533 183.962 10.424C183.962 10.004 183.831 9.696 183.57 9.5C183.309 9.304 182.912 9.20133 182.38 9.192L180.896 9.178V11.712L182.38 11.726ZM190.994 5.524H192.744V10.452L196.874 5.524H198.47V13H196.72V8.072L192.604 13H190.994V5.524ZM194.62 4.642C193.864 4.642 193.286 4.46933 192.884 4.124C192.492 3.76933 192.292 3.256 192.282 2.584H193.444C193.454 2.92 193.556 3.186 193.752 3.382C193.958 3.578 194.242 3.676 194.606 3.676C194.961 3.676 195.241 3.578 195.446 3.382C195.661 3.186 195.773 2.92 195.782 2.584H196.972C196.963 3.256 196.758 3.76933 196.356 4.124C195.955 4.46933 195.376 4.642 194.62 4.642ZM96.344 21.524V29H94.608V23.008H90.926V29H89.176V21.524H96.344ZM101.691 21.44C102.793 21.44 103.633 21.706 104.211 22.238C104.799 22.7607 105.093 23.554 105.093 24.618V29H103.441V28.09C103.227 28.4167 102.919 28.6687 102.517 28.846C102.125 29.014 101.649 29.098 101.089 29.098C100.529 29.098 100.039 29.0047 99.6193 28.818C99.1993 28.622 98.8726 28.356 98.6393 28.02C98.4153 27.6747 98.3033 27.2873 98.3033 26.858C98.3033 26.186 98.5506 25.6493 99.0453 25.248C99.5493 24.8373 100.338 24.632 101.411 24.632H103.343V24.52C103.343 23.9973 103.185 23.596 102.867 23.316C102.559 23.036 102.097 22.896 101.481 22.896C101.061 22.896 100.646 22.9613 100.235 23.092C99.834 23.2227 99.4933 23.4047 99.2133 23.638L98.5273 22.364C98.9193 22.0653 99.3906 21.8367 99.9413 21.678C100.492 21.5193 101.075 21.44 101.691 21.44ZM101.453 27.824C101.892 27.824 102.279 27.726 102.615 27.53C102.961 27.3247 103.203 27.0353 103.343 26.662V25.794H101.537C100.529 25.794 100.025 26.1253 100.025 26.788C100.025 27.1053 100.151 27.3573 100.403 27.544C100.655 27.7307 101.005 27.824 101.453 27.824ZM111.603 21.44C112.331 21.44 112.979 21.5987 113.549 21.916C114.127 22.2333 114.58 22.6813 114.907 23.26C115.233 23.8387 115.397 24.506 115.397 25.262C115.397 26.018 115.233 26.69 114.907 27.278C114.58 27.8567 114.127 28.3047 113.549 28.622C112.979 28.9393 112.331 29.098 111.603 29.098C110.595 29.098 109.797 28.762 109.209 28.09V31.716H107.459V21.524H109.125V22.504C109.414 22.1493 109.769 21.8833 110.189 21.706C110.618 21.5287 111.089 21.44 111.603 21.44ZM111.407 27.6C112.051 27.6 112.578 27.3853 112.989 26.956C113.409 26.5267 113.619 25.962 113.619 25.262C113.619 24.562 113.409 23.9973 112.989 23.568C112.578 23.1387 112.051 22.924 111.407 22.924C110.987 22.924 110.609 23.022 110.273 23.218C109.937 23.4047 109.671 23.6753 109.475 24.03C109.279 24.3847 109.181 24.7953 109.181 25.262C109.181 25.7287 109.279 26.1393 109.475 26.494C109.671 26.8487 109.937 27.124 110.273 27.32C110.609 27.5067 110.987 27.6 111.407 27.6ZM122.987 23.008H120.369V29H118.619V23.008H115.987V21.524H122.987V23.008ZM124.456 21.524H126.206V24.562H129.972V21.524H131.722V29H129.972V26.046H126.206V29H124.456V21.524ZM141.268 25.304C141.268 25.4253 141.258 25.598 141.24 25.822H135.374C135.476 26.3727 135.742 26.8113 136.172 27.138C136.61 27.4553 137.152 27.614 137.796 27.614C138.617 27.614 139.294 27.3433 139.826 26.802L140.764 27.88C140.428 28.2813 140.003 28.5847 139.49 28.79C138.976 28.9953 138.398 29.098 137.754 29.098C136.932 29.098 136.209 28.9347 135.584 28.608C134.958 28.2813 134.473 27.8287 134.128 27.25C133.792 26.662 133.624 25.9993 133.624 25.262C133.624 24.534 133.787 23.8807 134.114 23.302C134.45 22.714 134.912 22.2567 135.5 21.93C136.088 21.6033 136.75 21.44 137.488 21.44C138.216 21.44 138.864 21.6033 139.434 21.93C140.012 22.2473 140.46 22.7 140.778 23.288C141.104 23.8667 141.268 24.5387 141.268 25.304ZM137.488 22.84C136.928 22.84 136.452 23.008 136.06 23.344C135.677 23.6707 135.444 24.1093 135.36 24.66H139.602C139.527 24.1187 139.298 23.68 138.916 23.344C138.533 23.008 138.057 22.84 137.488 22.84ZM147.526 21.44C148.254 21.44 148.903 21.5987 149.472 21.916C150.051 22.2333 150.503 22.6813 150.83 23.26C151.157 23.8387 151.32 24.506 151.32 25.262C151.32 26.018 151.157 26.69 150.83 27.278C150.503 27.8567 150.051 28.3047 149.472 28.622C148.903 28.9393 148.254 29.098 147.526 29.098C146.518 29.098 145.72 28.762 145.132 28.09V31.716H143.382V21.524H145.048V22.504C145.337 22.1493 145.692 21.8833 146.112 21.706C146.541 21.5287 147.013 21.44 147.526 21.44ZM147.33 27.6C147.974 27.6 148.501 27.3853 148.912 26.956C149.332 26.5267 149.542 25.962 149.542 25.262C149.542 24.562 149.332 23.9973 148.912 23.568C148.501 23.1387 147.974 22.924 147.33 22.924C146.91 22.924 146.532 23.022 146.196 23.218C145.86 23.4047 145.594 23.6753 145.398 24.03C145.202 24.3847 145.104 24.7953 145.104 25.262C145.104 25.7287 145.202 26.1393 145.398 26.494C145.594 26.8487 145.86 27.124 146.196 27.32C146.532 27.5067 146.91 27.6 147.33 27.6Z" fill="black"/>
<path d="M15.4102 62H12.1172L5.0625 53.3164V62H2.26172V44.8672H5.0625V53.1641L12 44.8672H15.0703L8.15625 53.1406L15.4102 62ZM28.8867 55.4961C28.8867 57.6133 28.3438 59.2656 27.2578 60.4531C26.1719 61.6406 24.6602 62.2344 22.7227 62.2344C21.5117 62.2344 20.4414 61.9609 19.5117 61.4141C18.582 60.8672 17.8672 60.082 17.3672 59.0586C16.8672 58.0352 16.6172 56.8477 16.6172 55.4961C16.6172 53.3945 17.1562 51.7539 18.2344 50.5742C19.3125 49.3945 20.832 48.8047 22.793 48.8047C24.668 48.8047 26.1523 49.4102 27.2461 50.6211C28.3398 51.8242 28.8867 53.4492 28.8867 55.4961ZM19.4531 55.4961C19.4531 58.4883 20.5586 59.9844 22.7695 59.9844C24.957 59.9844 26.0508 58.4883 26.0508 55.4961C26.0508 52.5352 24.9492 51.0547 22.7461 51.0547C21.5898 51.0547 20.75 51.4375 20.2266 52.2031C19.7109 52.9688 19.4531 54.0664 19.4531 55.4961ZM39.5039 59.3633L39.6562 58.8008C39.9766 57.6367 40.2539 56.7422 40.4883 56.1172L43.3945 49.0391H47.0625V62H44.5195V51.5352L44.3086 52.2383C43.957 53.4961 43.6602 54.4219 43.418 55.0156L40.582 62H38.4961L35.6602 54.9688C35.2695 53.9531 34.9102 52.8086 34.582 51.5352V62H32.0625V49.0391H35.707L38.5195 55.9062C38.7695 56.5391 39.0977 57.6914 39.5039 59.3633ZM62.332 49.0391V62H59.5664V51.2188H53.7539V62H51V49.0391H62.332ZM74.3906 62L73.8398 60.1953H73.7461C73.1211 60.9844 72.4922 61.5234 71.8594 61.8125C71.2266 62.0938 70.4141 62.2344 69.4219 62.2344C68.1484 62.2344 67.1523 61.8906 66.4336 61.2031C65.7227 60.5156 65.3672 59.543 65.3672 58.2852C65.3672 56.9492 65.8633 55.9414 66.8555 55.2617C67.8477 54.582 69.3594 54.2109 71.3906 54.1484L73.6289 54.0781V53.3867C73.6289 52.5586 73.4336 51.9414 73.043 51.5352C72.6602 51.1211 72.0625 50.9141 71.25 50.9141C70.5859 50.9141 69.9492 51.0117 69.3398 51.207C68.7305 51.4023 68.1445 51.6328 67.582 51.8984L66.6914 49.9297C67.3945 49.5625 68.1641 49.2852 69 49.0977C69.8359 48.9023 70.625 48.8047 71.3672 48.8047C73.0156 48.8047 74.2578 49.1641 75.0938 49.8828C75.9375 50.6016 76.3594 51.7305 76.3594 53.2695V62H74.3906ZM70.2891 60.125C71.2891 60.125 72.0898 59.8477 72.6914 59.293C73.3008 58.7305 73.6055 57.9453 73.6055 56.9375V55.8125L71.9414 55.8828C70.6445 55.9297 69.6992 56.1484 69.1055 56.5391C68.5195 56.9219 68.2266 57.5117 68.2266 58.3086C68.2266 58.8867 68.3984 59.3359 68.7422 59.6562C69.0859 59.9688 69.6016 60.125 70.2891 60.125ZM82.957 49.0391V54.2422H89.0625V49.0391H91.8164V62H89.0625V56.4102H82.957V62H80.2031V49.0391H82.957ZM98.4023 49.0391V55.6836C98.4023 56.457 98.3398 57.5938 98.2148 59.0938L104.719 49.0391H108.082V62H105.434V55.4727C105.434 55.1133 105.453 54.5312 105.492 53.7266C105.539 52.9219 105.578 52.3359 105.609 51.9688L99.1289 62H95.7656V49.0391H98.4023ZM113.332 62H110.25L113.859 56.6914C112.984 56.4414 112.297 55.9961 111.797 55.3555C111.297 54.707 111.047 53.9062 111.047 52.9531C111.047 51.7266 111.484 50.7695 112.359 50.082C113.234 49.3867 114.43 49.0391 115.945 49.0391H121.852V62H119.086V57.0078H116.473L113.332 62ZM113.73 52.9766C113.73 53.6406 113.98 54.1406 114.48 54.4766C114.988 54.8047 115.668 54.9688 116.52 54.9688H119.086V51.125H116.086C115.336 51.125 114.754 51.2852 114.34 51.6055C113.934 51.9258 113.73 52.3828 113.73 52.9766ZM142.945 62L141.234 57.2422H134.684L133.008 62H130.055L136.465 44.7969H139.512L145.922 62H142.945ZM140.496 54.8281L138.891 50.1641C138.773 49.8516 138.609 49.3594 138.398 48.6875C138.195 48.0156 138.055 47.5234 137.977 47.2109C137.766 48.1719 137.457 49.2227 137.051 50.3633L135.504 54.8281H140.496ZM148.184 44.8672H150.75V53.7734C150.75 54.7031 150.727 55.6445 150.68 56.5977C150.633 57.543 150.598 58.1836 150.574 58.5195H150.68L159.434 44.8672H162.703V62H160.125V53.1641C160.125 51.8125 160.199 50.1719 160.348 48.2422H160.254L151.465 62H148.184V44.8672ZM174.48 47.0234C172.871 47.0234 171.605 47.5938 170.684 48.7344C169.762 49.875 169.301 51.4492 169.301 53.457C169.301 55.5586 169.742 57.1484 170.625 58.2266C171.516 59.3047 172.801 59.8438 174.48 59.8438C175.207 59.8438 175.91 59.7734 176.59 59.6328C177.27 59.4844 177.977 59.2969 178.711 59.0703V61.4727C177.367 61.9805 175.844 62.2344 174.141 62.2344C171.633 62.2344 169.707 61.4766 168.363 59.9609C167.02 58.4375 166.348 56.2617 166.348 53.4336C166.348 51.6523 166.672 50.0938 167.32 48.7578C167.977 47.4219 168.922 46.3984 170.156 45.6875C171.391 44.9766 172.84 44.6211 174.504 44.6211C176.254 44.6211 177.871 44.9883 179.355 45.7227L178.348 48.0547C177.77 47.7812 177.156 47.543 176.508 47.3398C175.867 47.1289 175.191 47.0234 174.48 47.0234ZM188.32 62H185.52V47.2695H180.48V44.8672H193.359V47.2695H188.32V62Z" fill="#212529"/>
</svg>
