<svg width="14" height="14" viewBox="0 0 14 14" fill="none" xmlns="http://www.w3.org/2000/svg">
<path d="M13.3615 10.1581C12.7809 9.56149 11.1305 8.44387 10.0489 8.44387C9.79833 8.44387 9.57961 8.49955 9.40065 8.61489C8.87175 8.95296 8.45021 9.21546 8.2474 9.21546C8.13605 9.21546 8.01674 9.11603 7.75428 8.88933L7.71053 8.84955C6.98279 8.21717 6.8277 8.0541 6.54535 7.75978L6.47377 7.68421C6.42207 7.63251 6.37832 7.58478 6.33458 7.54103C6.08802 7.28649 5.90907 7.10353 5.27676 6.38762L5.24893 6.3558C4.94669 6.01376 4.74786 5.79103 4.73593 5.62796C4.724 5.46887 4.86318 5.21035 5.21711 4.7291C5.6466 4.14842 5.66251 3.43251 5.26881 2.60126C4.95465 1.94501 4.44165 1.3166 3.9883 0.763759L3.94853 0.716031C3.55881 0.238758 3.10546 0.00012207 2.60041 0.00012207C2.03969 0.00012207 1.57441 0.302395 1.32785 0.461486C1.30797 0.473417 1.28808 0.489327 1.2682 0.501258C0.715433 0.851258 0.313781 1.33251 0.162665 1.82171C-0.0640099 2.55751 -0.215126 3.51205 0.870526 5.49671C1.80904 7.2149 2.66006 8.3683 4.01216 9.75637C5.28472 11.0609 5.84942 11.4825 7.11402 12.3973C8.52179 13.4155 9.87389 14.0001 10.8204 14.0001C11.6992 14.0001 12.3912 14.0001 13.3774 12.8109C14.4114 11.5621 13.9819 10.7984 13.3615 10.1581Z" fill="#37BBEB"/>
</svg>
