<svg width="14" height="15" viewBox="0 0 14 15" fill="none" xmlns="http://www.w3.org/2000/svg">
<circle cx="7" cy="7.5" r="7" fill="#D2D2D2"/>
<path d="M6.17429 9.86134C6.13735 9.47712 6.15582 9.15201 6.22971 8.88601C6.3036 8.61262 6.40335 8.37987 6.52896 8.18776C6.66196 7.98826 6.80974 7.81831 6.97229 7.67792C7.14224 7.53015 7.2974 7.38976 7.43779 7.25676C7.58557 7.12376 7.70749 6.98706 7.80354 6.84667C7.8996 6.6989 7.94763 6.52526 7.94763 6.32576C7.94763 6.06715 7.87374 5.86026 7.72596 5.70509C7.58557 5.54992 7.33065 5.47234 6.96121 5.47234C6.84299 5.47234 6.71738 5.48712 6.58438 5.51667C6.45138 5.53884 6.31838 5.57578 6.18538 5.62751C6.05238 5.67184 5.92307 5.72726 5.79746 5.79376C5.67924 5.85287 5.5721 5.91567 5.47604 5.98217L4.92188 4.91817C5.20265 4.72606 5.52407 4.5672 5.88613 4.44159C6.25557 4.31598 6.6989 4.25317 7.21613 4.25317C7.91068 4.25317 8.45376 4.42312 8.84538 4.76301C9.23699 5.09551 9.43279 5.54623 9.43279 6.11517C9.43279 6.49201 9.38107 6.80603 9.27763 7.05726C9.18157 7.30109 9.05965 7.51167 8.91188 7.68901C8.7641 7.85895 8.60154 8.01042 8.42421 8.14342C8.24688 8.27642 8.08432 8.42051 7.93654 8.57567C7.78876 8.72345 7.66315 8.89709 7.55971 9.09659C7.45626 9.29609 7.40454 9.55101 7.40454 9.86134H6.17429ZM5.95263 11.4352C5.95263 11.1766 6.0339 10.9734 6.19646 10.8256C6.35901 10.6704 6.57329 10.5928 6.83929 10.5928C7.12007 10.5928 7.34174 10.6704 7.50429 10.8256C7.66685 10.9734 7.74813 11.1766 7.74813 11.4352C7.74813 11.6938 7.66685 11.9007 7.50429 12.0558C7.34174 12.211 7.12007 12.2886 6.83929 12.2886C6.57329 12.2886 6.35901 12.211 6.19646 12.0558C6.0339 11.9007 5.95263 11.6938 5.95263 11.4352Z" fill="white"/>
</svg>
